<svg xmlns="http://www.w3.org/2000/svg" width="800" height="360" class="bg-white rounded-lg" style="max-width: 100%;"><g><g class="round-labels"><text x="23.5" y="24" text-anchor="middle" font-size="11" font-weight="600" fill="#1B3A5C">Initial</text><text x="274.5" y="24" text-anchor="middle" font-size="11" font-weight="600" fill="#1B3A5C">Round 1</text><text x="274.5" y="42" text-anchor="middle" font-size="10" font-weight="500" fill="#C0392B" text-decoration="line-through">✗ Bean &amp; Brew</text><text x="525.5" y="24" text-anchor="middle" font-size="11" font-weight="600" fill="#1B3A5C">Round 2</text><text x="525.5" y="42" text-anchor="middle" font-size="10" font-weight="500" fill="#C0392B" text-decoration="line-through">✗ Coffee Republic</text><text x="776.5" y="24" text-anchor="middle" font-size="11" font-weight="600" fill="#1B3A5C">Final</text></g><g class="sankey-links" fill="none"><path d="M31,106.41176470588235C149,106.41176470588235,149,106.41176470588235,267,106.41176470588235" stroke="#2E75B6" stroke-width="112.8235294117647" stroke-opacity="0.35" style="mix-blend-mode: multiply;"/><path d="M31,295.64705882352933C149,295.64705882352933,149,295.6470588235294,267,295.6470588235294" stroke="#1B3A5C" stroke-width="96.70588235294117" stroke-opacity="0.35" style="mix-blend-mode: multiply;"/><path d="M31,205.05882352941177C149,205.05882352941177,149,205.05882352941177,267,205.05882352941177" stroke="#2D8A56" stroke-width="64.47058823529412" stroke-opacity="0.35" style="mix-blend-mode: multiply;"/><path d="M282,106.41176470588235C400,106.41176470588235,400,107.90813292368613,518,107.90813292368613" stroke="#2E75B6" stroke-width="112.8235294117647" stroke-opacity="0.35" style="mix-blend-mode: multiply;"/><path d="M282,197C400,197,400,188.49636821780376,518,188.49636821780376" stroke="#2D8A56" stroke-width="48.35294117647059" stroke-opacity="0.55" stroke-dasharray="4,2" style="mix-blend-mode: multiply;"/><path d="M282,295.6470588235294C400,295.6470588235294,400,294.933594956598,518,294.933594956598" stroke="#1B3A5C" stroke-width="96.70588235294117" stroke-opacity="0.35" style="mix-blend-mode: multiply;"/><path d="M282,229.23529411764704C400,229.23529411764704,400,238.5218302507156,518,238.5218302507156" stroke="#2D8A56" stroke-width="16.11764705882353" stroke-opacity="0.55" stroke-dasharray="4,2" style="mix-blend-mode: multiply;"/><path d="M533,132.08460351192144C651,132.08460351192144,651,132.08112602477541,769,132.08112602477541" stroke="#2E75B6" stroke-width="161.1764705882353" stroke-opacity="0.35" style="mix-blend-mode: multiply;"/><path d="M533,286.87477142718615C651,286.87477142718615,651,286.8755629843088,769,286.8755629843088" stroke="#1B3A5C" stroke-width="112.8235294117647" stroke-opacity="0.35" style="mix-blend-mode: multiply;"/></g><g class="sankey-nodes"><g class="sankey-node"><rect x="267" y="50" width="15" height="112.8235294117647" fill="#2E75B6" fill-opacity="1" stroke="#FFFFFF" stroke-width="1"/></g><g class="sankey-node"><rect x="267" y="247.29411764705878" width="15" height="96.70588235294093" fill="#1B3A5C" fill-opacity="1" stroke="#FFFFFF" stroke-width="1"/></g><g class="sankey-node"><rect x="267" y="172.8235294117647" width="15" height="64.47058823529414" fill="#2D8A56" fill-opacity="1" stroke="#FFFFFF" stroke-width="1"/></g><g class="sankey-node"><rect x="518" y="51.49636821780378" width="15" height="161.1764705882353" fill="#2E75B6" fill-opacity="1" stroke="#FFFFFF" stroke-width="1"/></g><g class="sankey-node"><rect x="518" y="230.46300672130383" width="15" height="112.82352941176481" fill="#1B3A5C" fill-opacity="1" stroke="#FFFFFF" stroke-width="1"/></g><g class="sankey-node"><rect x="16" y="50" width="15" height="112.8235294117647" fill="#2E75B6" fill-opacity="1" stroke="#FFFFFF" stroke-width="1"/><text x="35" y="106.41176470588235" dy="0.35em" text-anchor="start" font-size="10" fill="#2C3E50">Cafe Verde (7)</text></g><g class="sankey-node"><rect x="16" y="247.29411764705875" width="15" height="96.70588235294125" fill="#1B3A5C" fill-opacity="1" stroke="#FFFFFF" stroke-width="1"/><text x="35" y="295.6470588235294" dy="0.35em" text-anchor="start" font-size="10" fill="#2C3E50">Coffee Republic (6)</text></g><g class="sankey-node"><rect x="16" y="172.8235294117647" width="15" height="64.47058823529414" fill="#2D8A56" fill-opacity="1" stroke="#FFFFFF" stroke-width="1"/><text x="35" y="205.05882352941177" dy="0.35em" text-anchor="start" font-size="10" fill="#2C3E50">Bean &amp; Brew (4)</text></g><g class="sankey-node"><rect x="769" y="51.49289073065778" width="15" height="161.17647058823536" fill="#2E75B6" fill-opacity="1" stroke="#1B3A5C" stroke-width="3"/><text x="765" y="132.08112602477544" dy="0.35em" text-anchor="end" font-size="10" fill="#2C3E50">Cafe Verde (10)</text></g><g class="sankey-node"><rect x="769" y="230.46379827842642" width="15" height="112.82352941176472" fill="#1B3A5C" fill-opacity="0.45" stroke="#FFFFFF" stroke-width="1"/><text x="765" y="286.8755629843088" dy="0.35em" text-anchor="end" font-size="10" fill="#2C3E50">Coffee Republic (7)</text></g></g></g></svg>