<svg xmlns="http://www.w3.org/2000/svg" width="714" height="360" class="bg-white rounded-lg" style="max-width: 100%;"><g><g class="round-labels"><text x="23.5" y="24" text-anchor="middle" font-size="11" font-weight="600" fill="#1B3A5C">Round 1</text><text x="23.5" y="42" text-anchor="middle" font-size="10" font-weight="500" fill="#2D8A56">✓ Aria Chen</text><text x="357" y="24" text-anchor="middle" font-size="11" font-weight="600" fill="#1B3A5C">Round 2</text><text x="357" y="42" text-anchor="middle" font-size="10" font-weight="500" fill="#C0392B" text-decoration="line-through">✗ Cara Singh</text><text x="690.5" y="24" text-anchor="middle" font-size="11" font-weight="600" fill="#1B3A5C">Round 3</text><text x="690.5" y="42" text-anchor="middle" font-size="10" font-weight="500" fill="#C0392B" text-decoration="line-through">✗ Devon Park</text></g><g class="sankey-links" fill="none"><path d="M31,119.26666666666665C190.25,119.26666666666665,190.25,104.35201604849149,349.5,104.35201604849149" stroke="#2E75B6" stroke-width="84.66666666666667" stroke-opacity="0.35" style="mix-blend-mode: multiply;"/><path d="M31,222.39999999999998C190.25,222.39999999999998,190.25,205.6012531979994,349.5,205.6012531979994" stroke="#1B3A5C" stroke-width="67.73333333333333" stroke-opacity="0.35" style="mix-blend-mode: multiply;"/><path d="M31,163.01111111111112C190.25,163.01111111111112,190.25,170.32347542022163,349.5,170.32347542022163" stroke="#2E75B6" stroke-width="2.8222222222222273" stroke-opacity="0.55" stroke-dasharray="4,2" style="mix-blend-mode: multiply;"/><path d="M31,318.5999999999999C190.25,318.5999999999999,190.25,315.91236430911056,349.5,315.91236430911056" stroke="#C0392B" stroke-width="50.8" stroke-opacity="0.35" style="mix-blend-mode: multiply;"/><path d="M31,172.88888888888889C190.25,172.88888888888889,190.25,284.86791986466613,349.5,284.86791986466613" stroke="#2E75B6" stroke-width="11.288888888888879" stroke-opacity="0.55" stroke-dasharray="4,2" style="mix-blend-mode: multiply;"/><path d="M31,274.7333333333333C190.25,274.7333333333333,190.25,260.75680875355494,349.5,260.75680875355494" stroke="#F39C12" stroke-width="16.933333333333334" stroke-opacity="0.35" style="mix-blend-mode: multiply;"/><path d="M31,165.83333333333334C190.25,165.83333333333334,190.25,250.87903097577717,349.5,250.87903097577717" stroke="#2E75B6" stroke-width="2.8222222222222233" stroke-opacity="0.55" stroke-dasharray="4,2" style="mix-blend-mode: multiply;"/><path d="M31,58.46666666666667C357,58.46666666666667,357,58.46666666666667,683,58.46666666666667" stroke="#2D8A56" stroke-width="16.933333333333334" stroke-opacity="0.35" style="mix-blend-mode: multiply;"/><path d="M364.5,104.35201604849149C523.75,104.35201604849149,523.75,119.26666666666668,683,119.26666666666668" stroke="#2E75B6" stroke-width="84.66666666666667" stroke-opacity="0.35" style="mix-blend-mode: multiply;"/><path d="M364.5,204.19014208688827C523.75,204.19014208688827,523.75,206.8777777777778,683,206.8777777777778" stroke="#1B3A5C" stroke-width="70.55555555555556" stroke-opacity="0.35" style="mix-blend-mode: multiply;"/><path d="M364.5,254.40680875355494C523.75,254.40680875355494,523.75,247.09444444444446,683,247.09444444444446" stroke="#F39C12" stroke-width="9.877777777777773" stroke-opacity="0.55" stroke-dasharray="4,2" style="mix-blend-mode: multiply;"/><path d="M364.5,310.2679198646661C523.75,310.2679198646661,523.75,309.59428114214757,683,309.59428114214757" stroke="#C0392B" stroke-width="62.08888888888888" stroke-opacity="0.35" style="mix-blend-mode: multiply;"/></g><g class="sankey-nodes"><g class="sankey-node"><rect x="16" y="76.93333333333332" width="15" height="101.59999999999998" fill="#2E75B6" stroke="#FFFFFF" stroke-width="1"/><text x="35" y="127.73333333333332" dy="0.35em" text-anchor="start" font-size="10" fill="#2C3E50">Aria Chen (6)</text></g><g class="sankey-node"><rect x="16" y="188.5333333333333" width="15" height="67.73333333333335" fill="#1B3A5C" stroke="#FFFFFF" stroke-width="1"/><text x="35" y="222.39999999999998" dy="0.35em" text-anchor="start" font-size="10" fill="#2C3E50">Boris Patel (4)</text></g><g class="sankey-node"><rect x="16" y="293.19999999999993" width="15" height="50.80000000000001" fill="#C0392B" stroke="#FFFFFF" stroke-width="1"/><text x="35" y="318.5999999999999" dy="0.35em" text-anchor="start" font-size="10" fill="#2C3E50">Devon Park (3)</text></g><g class="sankey-node"><rect x="16" y="266.26666666666665" width="15" height="16.93333333333328" fill="#F39C12" stroke="#FFFFFF" stroke-width="1"/><text x="35" y="274.7333333333333" dy="0.35em" text-anchor="start" font-size="10" fill="#2C3E50">Eli Rojas (1)</text></g><g class="sankey-node"><rect x="16" y="50" width="15" height="16.933333333333323" fill="#2D8A56" stroke="#FFFFFF" stroke-width="1"/><text x="35" y="58.46666666666666" dy="0.35em" text-anchor="start" font-size="10" fill="#2C3E50">Cara Singh (1)</text></g><g class="sankey-node"><rect x="349.5" y="62.01868271515815" width="15" height="84.66666666666666" fill="#2E75B6" stroke="#FFFFFF" stroke-width="1"/></g><g class="sankey-node"><rect x="349.5" y="168.9123643091105" width="15" height="70.55555555555554" fill="#1B3A5C" stroke="#FFFFFF" stroke-width="1"/></g><g class="sankey-node"><rect x="349.5" y="279.2234754202217" width="15" height="62.0888888888889" fill="#C0392B" stroke="#FFFFFF" stroke-width="1"/></g><g class="sankey-node"><rect x="349.5" y="249.46791986466604" width="15" height="19.755555555555645" fill="#F39C12" stroke="#FFFFFF" stroke-width="1"/></g><g class="sankey-node"><rect x="683" y="50" width="15" height="16.933333333333337" fill="#2D8A56" stroke="#FFFFFF" stroke-width="1"/></g><g class="sankey-node"><rect x="683" y="76.93333333333334" width="15" height="84.66666666666669" fill="#2E75B6" stroke="#1B3A5C" stroke-width="3"/><text x="679" y="119.26666666666668" dy="0.35em" text-anchor="end" font-size="10" fill="#2C3E50">Aria Chen (5)</text></g><g class="sankey-node"><rect x="683" y="171.60000000000002" width="15" height="80.43333333333331" fill="#1B3A5C" stroke="#1B3A5C" stroke-width="3"/><text x="679" y="211.81666666666666" dy="0.35em" text-anchor="end" font-size="10" fill="#2C3E50">Boris Patel (4.75)</text></g><g class="sankey-node"><rect x="683" y="278.54983669770314" width="15" height="62.0888888888889" fill="#C0392B" stroke="#FFFFFF" stroke-width="1"/><text x="679" y="309.59428114214757" dy="0.35em" text-anchor="end" font-size="10" fill="#2C3E50">Devon Park (3.67)</text></g></g></g></svg>